<svg xmlns="http://www.w3.org/2000/svg" x="0px" y="0px"
width="50" height="50"
viewBox="0 0 172 172"
style=" fill:#000000;"><g fill="none" fill-rule="nonzero" stroke="none" stroke-width="1" stroke-linecap="butt" stroke-linejoin="miter" stroke-miterlimit="10" stroke-dasharray="" stroke-dashoffset="0" font-family="none" font-weight="none" font-size="none" text-anchor="none" style="mix-blend-mode: normal"><path d="M0,172v-172h172v172z" fill="none"></path><g fill="#000000"><path d="M86.25531,6.80609l-3.7625,0.16125c-1.18735,0.05203 -2.36749,0.13793 -3.54078,0.24188c-0.1495,0.01321 -0.3009,0.01955 -0.45016,0.03359c-1.08901,0.1027 -2.16936,0.23646 -3.24515,0.38297c-0.22121,0.03007 -0.44453,0.05545 -0.66515,0.08734c-0.94135,0.13634 -1.87135,0.30106 -2.80172,0.47031c-0.38526,0.06997 -0.77232,0.13275 -1.15563,0.20828c-0.78222,0.15439 -1.55761,0.3266 -2.3314,0.50391c-0.48938,0.112 -0.97881,0.22161 -1.46469,0.34266c-0.78707,0.19627 -1.56726,0.41188 -2.34485,0.63156c-0.45028,0.12709 -0.90348,0.24814 -1.35047,0.38297c-0.80397,0.24273 -1.59889,0.50523 -2.39188,0.77266c-0.39014,0.13148 -0.78166,0.25903 -1.16906,0.39641c-0.82327,0.29213 -1.6351,0.60208 -2.44562,0.92047c-0.37875,0.14865 -0.75959,0.29586 -1.13547,0.45016c-0.73046,0.30013 -1.45082,0.61944 -2.17015,0.94062c-0.45534,0.20314 -0.91315,0.39996 -1.36391,0.61141c-0.66738,0.31329 -1.32495,0.64298 -1.98203,0.97422c-0.50239,0.25308 -1.00208,0.50925 -1.49828,0.77266c-0.59185,0.31439 -1.17749,0.63864 -1.76031,0.9675c-0.47321,0.26686 -0.94383,0.53672 -1.41094,0.81297c-0.62885,0.37209 -1.25027,0.75335 -1.86781,1.14219c-0.49661,0.31252 -0.98903,0.63089 -1.47813,0.95406c-0.50636,0.33476 -1.00686,0.67525 -1.505,1.02125c-0.52329,0.36328 -1.04473,0.72639 -1.55875,1.10187c-0.48847,0.35698 -0.97134,0.72063 -1.45125,1.08844c-0.53464,0.40959 -1.06185,0.8269 -1.58562,1.24969c-0.47071,0.38008 -0.93575,0.76507 -1.3975,1.15563c-0.34213,0.28928 -0.67742,0.58522 -1.01453,0.88016c-1.63474,1.43068 -3.21805,2.92266 -4.73,4.48141c-0.22193,0.22875 -0.43926,0.46062 -0.65844,0.69203c-1.46934,1.55154 -2.87819,3.15778 -4.21937,4.82406c-0.37421,0.46489 -0.73804,0.93752 -1.10187,1.41094c-0.32427,0.42195 -0.6516,0.84124 -0.9675,1.26984c-0.44486,0.60355 -0.87548,1.21777 -1.30344,1.83422c-0.29308,0.42217 -0.58842,0.84177 -0.87344,1.26985c-0.37174,0.55833 -0.73062,1.12496 -1.08844,1.69313c-0.31207,0.49554 -0.62589,0.98872 -0.92719,1.49156c-0.40979,0.6839 -0.79971,1.37903 -1.18922,2.0761c-0.21123,0.37798 -0.42639,0.75371 -0.63156,1.13547c-0.34882,0.64912 -0.68347,1.3088 -1.01453,1.9686c-0.25116,0.5005 -0.50501,0.99853 -0.74578,1.505c-0.31732,0.66749 -0.61474,1.34474 -0.91375,2.02234c-0.2056,0.46587 -0.42131,0.92699 -0.61813,1.3975c-0.27733,0.66311 -0.53318,1.33681 -0.79281,2.00891c-0.20912,0.54127 -0.42065,1.07901 -0.61813,1.62594c-0.24059,0.66636 -0.46226,1.34112 -0.68531,2.01562c-0.17015,0.5145 -0.34411,1.02622 -0.50391,1.54531c-0.21486,0.698 -0.40879,1.40363 -0.60469,2.10969c-0.15519,0.5592 -0.32047,1.11561 -0.46359,1.67969c-0.20678,0.81527 -0.38317,1.64068 -0.56438,2.46578c-0.08726,0.3971 -0.18749,0.78991 -0.26875,1.18922c-0.16989,0.83535 -0.30686,1.6816 -0.45016,2.52625c-0.08077,0.47583 -0.17638,0.9457 -0.24859,1.42437c-0.10088,0.66897 -0.17133,1.34802 -0.25531,2.02235c-0.07898,0.63382 -0.17802,1.26305 -0.24188,1.9014c-0.04203,0.42036 -0.05865,0.84758 -0.09406,1.26985c-0.18495,2.20435 -0.30234,4.42677 -0.30234,6.67844c0,43.6552 35.4648,79.12 79.12,79.12c2.65535,0 5.27904,-0.1334 7.86765,-0.38969c0.02692,-0.00267 0.05371,-0.00403 0.08063,-0.00672c0.63836,-0.06386 1.26758,-0.1629 1.9014,-0.24188c0.67432,-0.08398 1.35337,-0.15444 2.02235,-0.25531c0.47867,-0.07222 0.94854,-0.16782 1.42437,-0.24859c0.84465,-0.14329 1.6909,-0.28027 2.52625,-0.45016c0.3993,-0.08126 0.79212,-0.18149 1.18922,-0.26875c0.8251,-0.18121 1.65051,-0.35759 2.46578,-0.56437c0.56408,-0.14312 1.12049,-0.30841 1.67969,-0.4636c0.70606,-0.1959 1.41168,-0.38982 2.10969,-0.60469c0.51909,-0.1598 1.03082,-0.33376 1.54531,-0.5039c0.6745,-0.22305 1.34926,-0.44472 2.01562,-0.68531c0.54693,-0.19748 1.08466,-0.409 1.62594,-0.61813c0.6721,-0.25963 1.3458,-0.51548 2.00891,-0.79281c0.47051,-0.19682 0.93163,-0.41253 1.3975,-0.61813c0.6776,-0.29901 1.35485,-0.59643 2.02234,-0.91375c0.50647,-0.24078 1.0045,-0.49463 1.505,-0.74578c0.6598,-0.33106 1.31947,-0.66571 1.9686,-1.01453c0.38176,-0.20518 0.75749,-0.42033 1.13547,-0.63156c0.69707,-0.38951 1.3922,-0.77943 2.0761,-1.18922c0.50284,-0.3013 0.99602,-0.61512 1.49156,-0.92719c0.56817,-0.35781 1.1348,-0.71669 1.69313,-1.08844c0.42808,-0.28502 0.84767,-0.58036 1.26985,-0.87344c0.61645,-0.42796 1.23066,-0.85858 1.83422,-1.30344c0.4286,-0.3159 0.84789,-0.64323 1.26984,-0.9675c0.47342,-0.36384 0.94606,-0.72766 1.41094,-1.10188c1.66628,-1.34118 3.27252,-2.75004 4.82406,-4.21938c0.23141,-0.21918 0.46328,-0.43651 0.69203,-0.65844c1.55875,-1.51195 3.05073,-3.09526 4.48141,-4.73c0.29494,-0.33712 0.59088,-0.67241 0.88015,-1.01453c0.39055,-0.46175 0.77554,-0.92679 1.15563,-1.3975c0.42279,-0.52377 0.8401,-1.05099 1.24969,-1.58562c0.36781,-0.47991 0.73146,-0.96278 1.08844,-1.45125c0.37548,-0.51402 0.73859,-1.03546 1.10188,-1.55875c0.346,-0.49814 0.68649,-0.99864 1.02125,-1.505c0.32318,-0.4891 0.64154,-0.98152 0.95406,-1.47813c0.38884,-0.61754 0.7701,-1.23896 1.14219,-1.86781c0.27625,-0.46711 0.54611,-0.93773 0.81297,-1.41094c0.32886,-0.58282 0.65311,-1.16846 0.9675,-1.76031c0.2634,-0.49621 0.51957,-0.99589 0.77265,-1.49828c0.33124,-0.65708 0.66093,-1.31465 0.97422,-1.98203c0.21144,-0.45076 0.40827,-0.90857 0.6114,-1.36391c0.32118,-0.71934 0.64049,-1.4397 0.94063,-2.17015c0.1543,-0.37588 0.30151,-0.75672 0.45015,-1.13547c0.31839,-0.81052 0.62834,-1.62236 0.92047,-2.44562c0.13737,-0.38741 0.26492,-0.77892 0.3964,-1.16906c0.26743,-0.79299 0.52993,-1.58791 0.77265,-2.39188c0.13483,-0.44699 0.25588,-0.90019 0.38297,-1.35047c0.21968,-0.77758 0.43529,-1.55778 0.63156,-2.34485c0.12104,-0.48588 0.23066,-0.97531 0.34265,-1.46469c0.17731,-0.7738 0.34952,-1.54918 0.50391,-2.3314c0.07553,-0.3833 0.13831,-0.77036 0.20828,-1.15563c0.16925,-0.93037 0.33397,-1.86037 0.47031,-2.80172c0.0319,-0.22063 0.05728,-0.44395 0.08735,-0.66515c0.14981,-1.10002 0.28569,-2.20524 0.38969,-3.31906c0.0116,-0.12457 0.01585,-0.25151 0.02688,-0.37625c0.10395,-1.17329 0.18985,-2.35343 0.24187,-3.54078l0.16125,-3.7625l-0.0739,0.00672v-1.17578l-77.69563,-77.69563h-1.17578zM79.18047,14.35125c0.01699,2.25325 0.15415,4.48036 0.3561,6.68516c-33.03424,3.25898 -58.89656,31.09311 -58.89656,64.96359c0,36.05621 29.30379,65.36 65.36,65.36c33.87048,0 61.70461,-25.86233 64.9636,-58.89656c2.2048,0.20195 4.4319,0.33911 6.68515,0.3561c-1.94531,20.57227 -12.42196,38.63814 -27.8761,50.54515c-0.15885,0.12175 -0.32386,0.23564 -0.48375,0.3561c-1.51196,1.14494 -3.06733,2.23423 -4.66953,3.25859c-0.43461,0.27649 -0.8827,0.53218 -1.32359,0.79953c-1.42401,0.86772 -2.86652,1.70356 -4.35375,2.4725c-0.57875,0.29784 -1.17926,0.55735 -1.76703,0.83985c-1.38278,0.66758 -2.77512,1.3217 -4.20594,1.9014c-0.80796,0.32593 -1.64349,0.59641 -2.46578,0.8936c-1.36496,0.49537 -2.72266,1.01086 -4.12531,1.42438c-0.089,0.02613 -0.17961,0.0481 -0.26875,0.0739c-2.01399,0.58519 -4.06349,1.08882 -6.14765,1.49828c-0.22264,0.04359 -0.4485,0.07268 -0.67188,0.11422c-2.04235,0.38109 -4.10732,0.68892 -6.20812,0.8936c-0.14038,0.01364 -0.28267,0.02075 -0.42328,0.03359c-2.19178,0.20061 -4.41203,0.31578 -6.65828,0.31578c-39.9368,0 -72.24,-32.3032 -72.24,-72.24c0,-2.24625 0.11517,-4.4665 0.31578,-6.65828c0.01284,-0.14061 0.01995,-0.28291 0.03359,-0.42328c0.20468,-2.1008 0.51251,-4.16577 0.89359,-6.20812c0.04154,-0.22338 0.07063,-0.44924 0.11422,-0.67188c0.40946,-2.08417 0.9131,-4.13367 1.49828,-6.14765c0.0258,-0.08914 0.04777,-0.17975 0.07391,-0.26875c0.41351,-1.40265 0.929,-2.76035 1.42438,-4.12531c0.29719,-0.82229 0.56766,-1.65782 0.89359,-2.46578c0.5797,-1.43082 1.23383,-2.82316 1.90141,-4.20594c0.28249,-0.58777 0.542,-1.18829 0.83984,-1.76703c0.76894,-1.48723 1.60478,-2.92974 2.4725,-4.35375c0.26735,-0.44089 0.52305,-0.88898 0.79953,-1.32359c1.02436,-1.6022 2.11365,-3.15757 3.25859,-4.66953c0.12045,-0.15989 0.23435,-0.3249 0.35609,-0.48375c11.90702,-15.45414 29.97289,-25.93079 50.54516,-27.8761zM86.0336,15.21797l70.74844,70.74844c-38.77326,-0.76781 -69.98063,-31.97518 -70.74844,-70.74844zM80.45703,27.8425c5.8318,32.35423 31.34624,57.86867 63.70047,63.70047c-2.79841,29.70788 -27.6944,52.93703 -58.1575,52.93703c-32.33787,0 -58.48,-26.14213 -58.48,-58.48c0,-30.4631 23.22915,-55.35909 52.93703,-58.1575z"></path></g></g></svg>